<mxfile host="app.diagrams.net" modified="2023-08-27T03:15:07.361Z" agent="Mozilla/5.0 (Windows NT 10.0; Win64; x64) AppleWebKit/537.36 (KHTML, like Gecko) Chrome/116.0.0.0 Safari/537.36 Edg/116.0.1938.54" version="21.6.9" etag="jxI1J9diIAPBha5ho6z9" type="github">
  <diagram name="ページ1" id="Q1BqQ3q8mxy9OEKXxmb7">
    <mxGraphModel>
      <root>
        <mxCell id="0" />
        <mxCell id="1" parent="0" />
      </root>
    </mxGraphModel>
  </diagram>
</mxfile>
